<?xml version="1.0" encoding="UTF-8"?>
<svg version="1.1" xmlns="http://www.w3.org/2000/svg" width="500" height="500">
<path d="M0 0 C165 0 330 0 500 0 C500 165 500 330 500 500 C335 500 170 500 0 500 C0 335 0 170 0 0 Z " fill="#2F96CA" transform="translate(0,0)"/>
<path d="M0 0 C1.0725 0.0103125 2.145 0.020625 3.25 0.03125 C13.83055328 0.36892723 24.60787503 4.59516853 33 11 C36.5541204 15.61468935 38.43343015 20.4034343 38.0625 26.25 C36.54342596 35.11586851 29.62544604 41.44513493 22.72583008 46.74780273 C17.11966607 50.69584582 11.46498166 54.10320073 5.3125 57.125 C4.37809082 57.58600098 3.44368164 58.04700195 2.48095703 58.52197266 C-30.60026567 74.56184023 -66.66005641 89.01661341 -102.453125 97.57421875 C-103.54399414 97.83533447 -104.63486328 98.0964502 -105.75878906 98.36547852 C-107.85552146 98.85681133 -109.9563428 99.33113992 -112.06152344 99.78491211 C-118.01756553 101.15257712 -121.71959725 102.57484933 -126 107 C-130.60409452 114.62057024 -131.12176414 123.56107381 -129.609375 132.2421875 C-125.75878445 144.53445733 -113.18208131 152.03413692 -102.51953125 157.921875 C-99.18845611 159.65135952 -95.80899853 161.27052446 -92.41210938 162.86621094 C-90.74092955 163.65173311 -89.07316984 164.44455719 -87.40820312 165.24316406 C-72.70035371 172.29608127 -57.75495346 178.69898359 -42.6875 184.9375 C-41.80699982 185.30221405 -40.92649963 185.6669281 -40.01931763 186.04269409 C-23.90709049 194.01382928 -23.90709049 194.01382928 -7 198 C-6.071875 196.6078125 -6.071875 196.6078125 -5.125 195.1875 C-2.89941238 191.84911856 -1.66252445 190.53314977 2 189 C7.22512887 188.42998594 10.53642829 189.23683656 15 192 C17.53466037 197.06932075 16.12536783 204.65450281 15 210 C16.52947266 210.38671875 16.52947266 210.38671875 18.08984375 210.78125 C36.90219683 216.18454699 59.30434766 234.22841197 69 251 C69.43183594 251.70769531 69.86367188 252.41539062 70.30859375 253.14453125 C75.06256215 262.53732002 74.85113231 275.73328096 71.70703125 285.6171875 C70.11511089 289.90666143 68.15071412 293.96598585 66 298 C65.39800781 299.13953125 64.79601562 300.2790625 64.17578125 301.453125 C55.39738469 316.69109639 42.3204853 329.90781743 29.015625 341.265625 C26.69885379 343.25912581 24.44580016 345.31554388 22.1875 347.375 C16.93579043 352.10233313 11.52732593 356.5999471 6 361 C5.36594238 361.50660156 4.73188477 362.01320313 4.07861328 362.53515625 C-26.12057072 386.58647153 -57.93681535 407.79359391 -94.71923828 420.21582031 C-96.5967187 420.86134237 -98.45574129 421.56029712 -100.30859375 422.2734375 C-119.45412867 429.49714287 -148.90259112 432.92640917 -168.125 425.4375 C-170.45302239 424.36746172 -172.75037971 423.22632731 -175 422 C-176.04027344 421.44699219 -177.08054688 420.89398438 -178.15234375 420.32421875 C-185.72104208 415.90491167 -192.11543291 409.96336253 -196 402 C-196.27714844 401.44828125 -196.55429688 400.8965625 -196.83984375 400.328125 C-203.12807174 385.37547226 -198.50314599 366.35879805 -192.75390625 352.05078125 C-186.35558773 336.87144644 -176.22255369 324.42465709 -165.16015625 312.40625 C-162.94791312 309.94197917 -160.87872316 307.40003545 -158.8125 304.8125 C-153.91513842 298.75319851 -148.5893405 293.13008719 -143.24609375 287.46484375 C-140.75152134 284.81618852 -138.31643406 282.1287333 -135.9375 279.375 C-132.44709326 275.34492938 -129.09502653 271.66888433 -124.5625 268.8125 C-121.55508593 266.7324256 -120.0337331 264.68193311 -118.25 261.5 C-113.08754486 252.31771312 -105.53235996 241.22342689 -95 238 C-90.37119485 237.18047384 -87.20499071 237.33340939 -83.0625 239.625 C-79.0368463 244.26060123 -78.63063195 249.06160583 -78.73046875 254.98828125 C-79.27574172 261.08111395 -80.66468117 267.03875524 -82 273 C-81.67837891 272.3608667 -81.35675781 271.7217334 -81.02539062 271.06323242 C-64.53643128 238.45284581 -64.53643128 238.45284581 -55 235 C-49.9773791 234.26556015 -46.32900567 234.18632306 -41.9375 236.875 C-38.70174977 240.42388734 -38.78794696 242.83905426 -38.83984375 247.46435547 C-39.10145592 251.60628236 -40.01989383 255.53942907 -41 259.5625 C-41.19078125 260.38041016 -41.3815625 261.19832031 -41.578125 262.04101562 C-42.04325127 264.02943044 -42.52035427 266.01503756 -43 268 C-36.54899404 258.27104385 -31.91444126 247.55380841 -27 237 C-27.55021317 236.82467743 -28.10042633 236.64935486 -28.66731262 236.46871948 C-34.09068129 234.70590758 -39.33659719 232.69598846 -44.57421875 230.4453125 C-45.76472336 229.93872604 -45.76472336 229.93872604 -46.97927856 229.42190552 C-49.55028643 228.3266446 -52.11900409 227.22613748 -54.6875 226.125 C-56.48585917 225.35630012 -58.28428109 224.58774704 -60.08276367 223.81933594 C-63.69521647 222.27488456 -67.30651897 220.72778401 -70.91699219 219.17871094 C-74.73960676 217.53896382 -78.56531374 215.90668217 -82.39299011 214.27879333 C-163.32487323 179.83780257 -163.32487323 179.83780257 -176.078125 149.3984375 C-176.38234375 148.60695312 -176.6865625 147.81546875 -177 147 C-177.52335937 145.80117187 -178.04671875 144.60234375 -178.5859375 143.3671875 C-180.3950827 138.50171763 -180.4553537 133.89497295 -180.375 128.75 C-180.36629883 127.82340576 -180.35759766 126.89681152 -180.34863281 125.94213867 C-180.11712876 115.1003484 -177.31080685 105.89078526 -173 96 C-172.34 96 -171.68 96 -171 96 C-171 92.04 -171 88.08 -171 84 C-170.05125 83.690625 -169.1025 83.38125 -168.125 83.0625 C-160.01109191 79.5046157 -153.92563262 71.94613629 -147.79101562 65.74951172 C-118.55738362 36.24045329 -81.40385625 15.04400374 -41 5 C-40.15953125 4.78569336 -39.3190625 4.57138672 -38.453125 4.35058594 C-25.40850304 1.07576639 -13.43371019 -0.74631723 0 0 Z " fill="#F7F3EF" transform="translate(339,27)"/>
<path d="M0 0 C2.53617239 2.10107284 2.95166148 2.79858949 3.75 6.125 C2.56121401 12.26706093 -1.19789911 15.21473741 -6 19 C-10.5050833 22.00916461 -15.17729051 24.55193013 -20 27 C-20.97646484 27.50152588 -20.97646484 27.50152588 -21.97265625 28.01318359 C-53.83748627 44.19885953 -89.09679154 57.75518702 -123.75341797 66.42822266 C-128.20702647 67.56171006 -132.61418784 68.85407543 -137.0234375 70.1484375 C-138.93395834 70.69501695 -140.85593255 71.20379347 -142.7890625 71.6640625 C-149.18999288 73.26912963 -153.86748622 75.73793246 -158 81 C-163.97758827 92.49421823 -165.91703773 104.60103788 -163.31640625 117.3515625 C-161.27060771 123.37860385 -158.18790537 128.24147978 -154 133 C-153.52175781 133.57105469 -153.04351562 134.14210937 -152.55078125 134.73046875 C-143.19012808 145.03426078 -129.39060505 151.15308251 -117 157 C-116.0929834 157.43151367 -115.1859668 157.86302734 -114.25146484 158.30761719 C-97.6265309 166.19341685 -80.75931827 173.41563466 -63.76025391 180.44384766 C-58.93341821 182.4397432 -54.11371583 184.45263169 -49.29345703 186.46435547 C-44.86362343 188.31274153 -40.43197971 190.15676689 -36 192 C-36.73433591 196.13482918 -37.98555939 199.14471126 -40.0625 202.8125 C-40.61035156 203.78832031 -41.15820312 204.76414063 -41.72265625 205.76953125 C-42.14417969 206.50558594 -42.56570313 207.24164063 -43 208 C-46.29596889 207.41676994 -49.22190575 206.62214445 -52.30175781 205.31689453 C-53.12254318 204.97166748 -53.94332855 204.62644043 -54.78898621 204.27075195 C-56.10773491 203.70747192 -56.10773491 203.70747192 -57.453125 203.1328125 C-58.37728714 202.74230713 -59.30144928 202.35180176 -60.25361633 201.94946289 C-63.25455145 200.67962454 -66.25239497 199.40267749 -69.25 198.125 C-71.31755912 197.24707331 -73.38518628 196.36930684 -75.45288086 195.49169922 C-89.68676402 189.44277873 -103.89990964 183.35565264 -118 177 C-119.72089844 176.23163818 -119.72089844 176.23163818 -121.4765625 175.44775391 C-149.78254043 162.79657089 -149.78254043 162.79657089 -162 154 C-162.65274902 153.53239258 -163.30549805 153.06478516 -163.97802734 152.58300781 C-175.9339222 143.8737197 -187.13490415 133.20910694 -190 118 C-190.78980682 104.37583243 -188.3700308 93.56641725 -183 81 C-185.31 80.34 -187.62 79.68 -190 79 C-187.45813418 77.30542279 -185.27481641 76.2562116 -182.5 75.0625 C-174.41841096 71.08078142 -168.51230319 64.07740653 -162.8125 57.25 C-159.580371 53.37874944 -155.84620879 50.24523866 -152 47 C-151.05125 46.16339844 -150.1025 45.32679687 -149.125 44.46484375 C-141.21076754 37.52828817 -132.90885949 31.58904865 -124 26 C-123.35611328 25.5889502 -122.71222656 25.17790039 -122.04882812 24.75439453 C-90.87890698 4.97585934 -36.23946335 -19.32312941 0 0 Z " fill="#727CFA" transform="translate(361,45)"/>
<path d="M0 0 C1 1 1 1 1.01953125 2.72265625 C-0.23730122 16.92723459 -5.01394341 30.6164392 -9.21875 44.1640625 C-10.86750646 49.50968307 -12.41080413 54.88206892 -13.9375 60.26367188 C-14.85131354 63.4771375 -15.77544491 66.68723095 -16.70596313 69.89587402 C-36.77264659 123.16476249 -36.77264659 123.16476249 -37 176 C-40.25 176.75 -40.25 176.75 -44 177 C-46.94572605 174.82946501 -47.84060941 173.47817177 -49 170 C-49.1848286 137.95072127 -39.46314269 105.88947948 -30.46484375 75.40625 C-30.23828094 74.6380896 -30.01171814 73.8699292 -29.77828979 73.07849121 C-28.62436851 69.16737915 -27.4668059 65.25742233 -26.30175781 61.34960938 C-25.8716993 59.89975308 -25.44168438 58.44988385 -25.01171875 57 C-24.70741188 55.9856488 -24.70741188 55.9856488 -24.3969574 54.95080566 C-23.35008417 51.53372338 -23.35008417 51.53372338 -23 48 C-23.34144043 48.63276855 -23.68288086 49.26553711 -24.03466797 49.91748047 C-30.91361988 62.65909692 -37.80622714 75.39109563 -44.89306641 88.01855469 C-45.95302283 89.91590941 -46.99930454 91.82021043 -48.04296875 93.7265625 C-51.48803535 99.96349743 -55.19733891 105.93666108 -59.3125 111.75 C-59.73337891 112.3471582 -60.15425781 112.94431641 -60.58789062 113.55957031 C-62.57773291 116.30721888 -64.14426818 118.09617879 -67 120 C-70.125 120.1875 -70.125 120.1875 -73 120 C-74.70216161 118.29783839 -74.20263684 116.18199528 -74.234375 113.8515625 C-74.1690296 106.48277963 -72.79238215 99.55852762 -71.25 92.375 C-70.97479317 91.05122368 -70.7005503 89.72724661 -70.42724609 88.40307617 C-68.74445569 80.29757975 -66.99912684 72.20218237 -65.11816406 64.14013672 C-64.4717984 61.34408395 -64 58.88312422 -64 56 C-69.51103839 64.68115191 -74.05642357 73.80354449 -78.625 83 C-79.02117523 83.79412292 -79.41735046 84.58824585 -79.82553101 85.40643311 C-85.32002965 96.4241533 -90.62031658 107.50668739 -95.7175293 118.71435547 C-99.31291908 126.59247974 -103.07547071 134.37474708 -106.9375 142.125 C-107.46964111 143.19830566 -108.00178223 144.27161133 -108.55004883 145.37744141 C-116.52221946 161.26110973 -116.52221946 161.26110973 -120 163 C-121.99960012 163.039992 -124.00047242 163.04346799 -126 163 C-125.39045931 155.96851276 -124.01352806 149.38949121 -122.25 142.5625 C-122.01023438 141.60923828 -121.77046875 140.65597656 -121.5234375 139.67382812 C-120.16946911 134.3451948 -118.73919406 129.04146847 -117.25257874 123.74862671 C-114.48477013 113.89286053 -111.90568749 103.99946868 -109.46020508 94.05883789 C-109.02767419 92.30833501 -108.59048102 90.55897768 -108.14868164 88.81079102 C-105.22469381 77.23878314 -103.06367439 65.89398959 -102 54 C-105.24085673 56.44587149 -107.76066301 58.69943408 -110.0078125 62.08203125 C-110.51957031 62.84966797 -111.03132813 63.61730469 -111.55859375 64.40820312 C-112.07550781 65.20162109 -112.59242188 65.99503906 -113.125 66.8125 C-113.64964844 67.59431641 -114.17429688 68.37613281 -114.71484375 69.18164062 C-119.37552184 76.24345287 -122.4369311 81.70741145 -122.1875 90.4375 C-122.16042969 91.67371094 -122.13335937 92.90992188 -122.10546875 94.18359375 C-122.07066406 95.11300781 -122.03585938 96.04242188 -122 97 C-126.7734375 96.25 -126.7734375 96.25 -128.8125 94 C-131.12595783 88.15547497 -130.90374406 83.87642302 -128.48828125 78.2109375 C-123.2120571 66.82590076 -115.64901541 53.8245077 -104 48 C-99.94857881 47.74139865 -98.45662331 47.69558446 -95 50 C-92.66618607 65.78756481 -98.5700523 82.85757544 -102.5625 98 C-102.96600445 99.54543994 -103.36900088 101.09101261 -103.77148438 102.63671875 C-104.3385965 104.81419649 -104.90632279 106.99148398 -105.47816467 109.16772461 C-105.98864871 111.11097714 -106.49435205 113.05548348 -107 115 C-107.18899872 115.7022168 -107.37799744 116.40443359 -107.57272339 117.12792969 C-108.47768044 120.56951858 -109 123.41461965 -109 127 C-108.59797363 126.11030518 -108.19594727 125.22061035 -107.78173828 124.30395508 C-74.24213943 50.12106972 -74.24213943 50.12106972 -64 45 C-61.30986661 44.81295596 -58.70313823 44.91418609 -56 45 C-54.38187299 46.61812701 -54.77780572 48.32858355 -54.73046875 50.5703125 C-54.80337515 58.22424852 -56.5853879 65.4656631 -58.3125 72.875 C-58.62542071 74.25626805 -58.93727479 75.63777819 -59.24804688 77.01953125 C-60.43510068 82.27449088 -61.64676141 87.52302955 -62.89990234 92.76269531 C-63.17398926 93.91608398 -63.44807617 95.06947266 -63.73046875 96.2578125 C-63.97563232 97.27246582 -64.2207959 98.28711914 -64.47338867 99.33251953 C-65.12912053 102.20088221 -65.12912053 102.20088221 -65 106 C-60.30339066 97.68331235 -55.63883344 89.34902024 -51 81 C-50.12722412 79.42992187 -50.12722412 79.42992187 -49.23681641 77.828125 C-41.02608633 62.99031565 -33.42635359 47.91803696 -26.1237793 32.61767578 C-22.59023867 25.2265806 -18.97221454 17.88909244 -15.17578125 10.62890625 C-14.61711617 9.54850319 -14.61711617 9.54850319 -14.04716492 8.4462738 C-10.06193983 0.90862953 -8.33605339 -0.5378099 0 0 Z " fill="#AD56C6" transform="translate(349,222)"/>
<path d="M0 0 C3.05402088 1.52701044 3.65869481 3.95157912 5 7 C5 11.00091142 3.2011558 13.5698979 1.25 16.9375 C0.85240479 17.63552734 0.45480957 18.33355469 0.04516602 19.05273438 C-2.7347334 23.90066614 -5.6151137 28.68403354 -8.51928711 33.45825195 C-14.16915733 42.76386797 -19.59194071 52.03588325 -24 62 C-24.59868896 63.34602295 -24.59868896 63.34602295 -25.20947266 64.71923828 C-30.79047138 77.55404368 -37.55939138 93.17342802 -32.14453125 107.21899414 C-29.73374845 112.26828283 -27.12984944 115.43507528 -22 118 C14.10331521 120.98819841 48.11331324 97.91339884 75.92138672 77.59619141 C80.88779657 74 80.88779657 74 82 74 C82.10957031 74.59167969 82.21914063 75.18335938 82.33203125 75.79296875 C83.60382447 82.13125529 85.31379242 86.43127395 90 91 C60.95728412 111.61846656 23.98154935 130.51599427 -12.4375 130.25 C-13.49259766 130.25773438 -14.54769531 130.26546875 -15.63476562 130.2734375 C-28.06233676 130.24284656 -41.23429492 128.43147103 -51.4375 120.6875 C-58.68717823 113.08417893 -61.48324984 105.16646034 -61.50415039 94.66455078 C-60.97730032 76.42364835 -50.72378963 58.28320396 -39 45 C-37.70122501 43.4577047 -36.40257036 41.91530047 -35.10839844 40.36914062 C-25.76137278 29.22796985 -16.25199394 18.22845665 -6.33984375 7.5859375 C-4.11808716 5.13050701 -2.03867317 2.60837168 0 0 Z " fill="#727DFA" transform="translate(213,313)"/>
<path d="M0 0 C13.71658755 6.62595509 25.89799064 13.37747941 37 24 C37.73476563 24.66 38.46953125 25.32 39.2265625 26 C46.65284212 32.89781778 50.22841292 39.3738078 50.75 49.625 C50.51910367 71.53420818 32.7372243 89.50267252 18.08154297 103.88232422 C11.20374558 110.52685791 4.14134444 116.89120407 -3.33203125 122.86328125 C-6.21971482 125.17596487 -9.04659504 127.5527664 -11.875 129.9375 C-13.91305359 131.62966983 -15.95391219 133.31763336 -18 135 C-18.85706543 135.70866211 -18.85706543 135.70866211 -19.73144531 136.43164062 C-21.47640035 137.86482524 -23.23566372 139.27827695 -25 140.6875 C-25.53995605 141.13407959 -26.07991211 141.58065918 -26.63623047 142.04077148 C-30.46235413 145.05217287 -30.46235413 145.05217287 -33.375 144.76953125 C-33.91125 144.51558594 -34.4475 144.26164063 -35 144 C-35.12418537 139.6604114 -35.09950004 135.34009709 -35 131 C-35.00386719 130.04609375 -35.00773437 129.0921875 -35.01171875 128.109375 C-34.55500622 121.98405399 -32.25743122 118.67191557 -27.75 114.6875 C-26.58572411 113.68731441 -25.41885521 112.69014267 -24.25 111.6953125 C-18.83715552 107.07645739 -13.78932329 102.08060332 -8.75 97.0625 C-8.02521957 96.34101273 -8.02521957 96.34101273 -7.28579712 95.60494995 C-0.26820013 88.5858766 6.0998537 81.67990739 11 73 C11.51304687 72.10152344 12.02609375 71.20304687 12.5546875 70.27734375 C16.77567612 62.37193286 19.45532656 54.03082106 18 45 C13.72008076 32.67949717 5.63163422 26.71860218 -5 20 C-3.68421053 3.68421053 -3.68421053 3.68421053 0 0 Z " fill="#717CFA" transform="translate(350,248)"/>
<path d="M0 0 C1.24962763 3.7488829 0.57768569 5.33345495 -0.4765625 9.1171875 C-0.81550537 10.35500977 -1.15444824 11.59283203 -1.50366211 12.86816406 C-1.77845901 13.85000671 -1.77845901 13.85000671 -2.05880737 14.85168457 C-3.00778413 18.24289671 -3.93096667 21.64111163 -4.85546875 25.0390625 C-5.04043411 25.71650513 -5.22539948 26.39394775 -5.41596985 27.09191895 C-7.28750651 33.98256959 -8.94540353 40.91873051 -10.53955078 47.87841797 C-11.90849591 53.81699182 -11.90849591 53.81699182 -13 56 C-13.46588282 61.88165736 -13.46588282 61.88165736 -11 67 C-7.2126222 68.01967864 -4.72091034 68.20597438 -0.9375 67.125 C2.04340707 64.96859914 2.94673255 63.60141797 4.75 60.5 C7.14227489 56.55753097 8.85198162 55.3051656 13.3125 54.125 C14.60607422 53.88136719 14.60607422 53.88136719 15.92578125 53.6328125 C16.61027344 53.42398438 17.29476562 53.21515625 18 53 C18.33 52.01 18.66 51.02 19 50 C22 48 22 48 24.43359375 48.16015625 C27.36738306 49.12022429 28.8422695 50.314377 31.0625 52.4375 C35.31439406 56.47048467 38.36090674 58.16007158 44.25 58.625 C45.14203125 58.69976562 46.0340625 58.77453125 46.953125 58.8515625 C47.62859375 58.90054688 48.3040625 58.94953125 49 59 C31.73420278 77.89331089 -2.24063969 95.72589917 -28 98 C-28.91652344 98.08121094 -29.83304688 98.16242188 -30.77734375 98.24609375 C-35.80161907 98.48397192 -35.80161907 98.48397192 -38 98 C-40.9882292 95.11227178 -41.50590958 92.63864027 -41.625 88.5625 C-41.08323365 66.64558865 -27.23404412 45.77006187 -16.3359375 27.5859375 C-12.62787591 21.39863613 -9.02098765 15.15488727 -5.42651367 8.90112305 C-5.00345947 8.16676025 -4.58040527 7.43239746 -4.14453125 6.67578125 C-3.77690674 6.03552002 -3.40928223 5.39525879 -3.03051758 4.7355957 C-2.07371702 3.12415406 -1.03955782 1.55933673 0 0 Z " fill="#359DCC" transform="translate(232,322)"/>
<path d="M0 0 C-0.32699801 3.01045788 -0.67601389 4.63854611 -2.72265625 6.921875 C-27.68687036 26.42646966 -59.57717975 37.96851859 -89 49 C-89.62934448 49.23692566 -90.25868896 49.47385132 -90.90710449 49.71795654 C-94.97277461 51.24792612 -99.04573308 52.75668605 -103.125 54.25 C-104.63465332 54.80651245 -104.63465332 54.80651245 -106.17480469 55.37426758 C-111.14372383 57.15689515 -115.73790358 58.50440089 -121 59 C-110.5397966 35.38366449 -74.36350984 18.53344894 -51.9375 9.5 C-45.06831456 6.90598866 -38.10303863 4.84547771 -31 3 C-29.96617187 2.69964844 -28.93234375 2.39929687 -27.8671875 2.08984375 C-18.55271039 -0.41969582 -9.56225778 -0.28976539 0 0 Z " fill="#F9F4F0" transform="translate(338,51)"/>
<path d="M0 0 C1.34251625 4.02754876 0.12686947 6.97937603 -0.9375 10.9375 C-3.59382174 21.37365853 -3.59382174 21.37365853 -3 32 C-1.10342205 34.47398057 0.09655254 35.77660208 3.1484375 36.53125 C3.88320313 36.5209375 4.61796875 36.510625 5.375 36.5 C6.10460937 36.5103125 6.83421875 36.520625 7.5859375 36.53125 C13.69756539 35.18629629 17.35411562 30.81690915 20.75 25.875 C21.16685059 25.28187012 21.58370117 24.68874023 22.01318359 24.07763672 C27.2733946 16.40837875 31.63151365 8.19788289 36 0 C37.35849192 4.07547575 36.02501421 6.95824018 34.8125 10.9140625 C32.85317679 17.61184795 31.23521151 24.291855 29.9375 31.1484375 C29.69531738 32.40977509 29.69531738 32.40977509 29.44824219 33.69659424 C28.79170707 37.13674284 28.14421421 40.57815043 27.52050781 44.02441406 C27.05250507 46.59036012 26.55948093 49.15046978 26.0625 51.7109375 C25.92900146 52.48690277 25.79550293 53.26286804 25.65795898 54.06234741 C24.89753085 57.88650554 24.22289303 59.78650458 21.37109375 62.51806641 C20.58863281 63.00710449 19.80617188 63.49614258 19 64 C18.01 63.505 18.01 63.505 17 63 C17.495 62.2575 17.495 62.2575 18 61.5 C19.48256965 57.79357588 19.32168896 54.98894311 19 51 C15.3558226 48.5705484 13.28758728 48.83820425 9 49 C7.35 51.97 5.7 54.94 4 58 C1 57 1 57 -1.3125 54.625 C-6.3153639 49.73848178 -9.9758359 48.82746565 -16.875 48.8125 C-18.91705977 48.86046785 -20.95901391 48.91823943 -23 49 C-18.03756256 37.86977855 -13.00141328 26.77465747 -7.88119507 15.71618652 C-7.29306344 14.44561853 -6.70568294 13.17470259 -6.11904907 11.90344238 C-5.28999292 10.10774466 -4.4575698 8.31360258 -3.625 6.51953125 C-3.14289063 5.47901611 -2.66078125 4.43850098 -2.1640625 3.36645508 C-1 1 -1 1 0 0 Z " fill="#2E8EC7" transform="translate(273,310)"/>
<path d="M0 0 C6.6765996 3.40642837 13.06217188 7.82947164 16 15 C17.0968862 25.78604759 11.17033849 34.53585538 5 43 C-2.13374501 51.48398066 -10.10641313 59.23039617 -18 67 C-19.58329483 63.83341034 -18.09871606 60.92056645 -17.19140625 57.66015625 C-16.98949677 56.91392502 -16.78758728 56.16769379 -16.57955933 55.39884949 C-15.9147366 52.951274 -15.23906135 50.50685451 -14.5625 48.0625 C-14.10334993 46.38580983 -13.64444817 44.70905164 -13.18579102 43.03222656 C-10.36116805 32.74495751 -7.45330723 22.48288273 -4.4375 12.25 C-3.93682007 10.54855835 -3.93682007 10.54855835 -3.42602539 8.81274414 C-2.96570923 7.27348267 -2.96570923 7.27348267 -2.49609375 5.703125 C-2.22982178 4.81270508 -1.9635498 3.92228516 -1.68920898 3.00488281 C-1 1 -1 1 0 0 Z " fill="#227CC0" transform="translate(341,280)"/>
<path d="M0 0 C5.2367097 2.23518097 9.1977035 5.84123821 13 10 C16.47132095 8.59070303 17.88093274 7.09394917 19.75 3.875 C20.17796875 3.15054687 20.6059375 2.42609375 21.046875 1.6796875 C21.51867187 0.84824219 21.51867187 0.84824219 22 0 C24.475 0.495 24.475 0.495 27 1 C27.49882898 5.1901634 27.19920015 6.71226646 24.75 10.25 C21.30951784 13.69048216 18.62813619 15.29051759 13.75 15.5625 C7.82524809 15.46489288 4.97430964 11.97430964 1 8 C-1.45377687 5.97540084 -2.65880735 5.06823853 -5.8125 4.4375 C-9.84214076 5.14861307 -11.53906809 6.85948831 -14.38671875 9.6875 C-16 11 -16 11 -19 11 C-18.18332294 7.09809848 -17.05590423 4.63443665 -14 2.125 C-9.50907438 -0.75068626 -5.16911357 -1.01275736 0 0 Z " fill="#393C6B" transform="translate(262,362)"/>
<path d="M0 0 C1.41687119 4.25061356 0.19320039 6.71851625 -1 11 C-1.99 10.67 -2.98 10.34 -4 10 C-3.52449439 8.51965236 -3.04448784 7.04074979 -2.5625 5.5625 C-2.29566406 4.73878906 -2.02882813 3.91507812 -1.75390625 3.06640625 C-1 1 -1 1 0 0 Z " fill="#4FA0CE" transform="translate(273,310)"/>
<path d="M0 0 C1.41687119 4.25061356 0.19320039 6.71851625 -1 11 C-1.99 10.34 -2.98 9.68 -4 9 C-2.94124926 5.59687262 -1.99097846 2.98646769 0 0 Z " fill="#58ACD2" transform="translate(232,322)"/>
<path d="M0 0 C0.33 0 0.66 0 1 0 C1.125 5.75 1.125 5.75 0 8 C-0.99 7.67 -1.98 7.34 -3 7 C-2.38722388 4.03824877 -1.74627478 2.61941217 0 0 Z " fill="#52A8D1" transform="translate(239,292)"/>
</svg>
